<svg width="14" height="14" viewBox="0 0 14 14" fill="none" xmlns="http://www.w3.org/2000/svg">
<path d="M7.00006 10.1C7.86673 10.1 8.60007 9.8 9.20007 9.2C9.80007 8.6 10.1001 7.86666 10.1001 7C10.1001 6.13333 9.80007 5.4 9.20007 4.8C8.60007 4.2 7.86673 3.9 7.00006 3.9C6.1334 3.9 5.40006 4.2 4.80007 4.8C4.20007 5.4 3.90007 6.13333 3.90007 7C3.90007 7.86666 4.20007 8.6 4.80007 9.2C5.40006 9.8 6.1334 10.1 7.00006 10.1ZM7.00006 13.7667C6.07784 13.7667 5.20284 13.5889 4.37507 13.2333C3.54729 12.8778 2.82784 12.3944 2.21673 11.7833C1.60562 11.1722 1.12229 10.4556 0.766732 9.63333C0.411176 8.81111 0.233398 7.93333 0.233398 7C0.233398 6.06666 0.411176 5.18611 0.766732 4.35833C1.12229 3.53055 1.60562 2.81389 2.21673 2.20833C2.82784 1.60277 3.54451 1.12222 4.36673 0.766663C5.18895 0.411108 6.06673 0.23333 7.00006 0.23333C7.9334 0.23333 8.81395 0.411108 9.64173 0.766663C10.4695 1.12222 11.1862 1.60277 11.7917 2.20833C12.3973 2.81389 12.8778 3.52777 13.2334 4.35C13.589 5.17222 13.7667 6.05555 13.7667 7C13.7667 7.93333 13.589 8.81111 13.2334 9.63333C12.8778 10.4556 12.3973 11.1722 11.7917 11.7833C11.1862 12.3944 10.4723 12.8778 9.65007 13.2333C8.82784 13.5889 7.94451 13.7667 7.00006 13.7667ZM7.00006 12.6333C8.56673 12.6333 9.89729 12.0833 10.9917 10.9833C12.0862 9.88333 12.6334 8.55555 12.6334 7C12.6334 5.43333 12.0862 4.10277 10.9917 3.00833C9.89729 1.91389 8.56673 1.36666 7.00006 1.36666C5.44451 1.36666 4.11673 1.91389 3.01673 3.00833C1.91673 4.10277 1.36673 5.43333 1.36673 7C1.36673 8.55555 1.91673 9.88333 3.01673 10.9833C4.11673 12.0833 5.44451 12.6333 7.00006 12.6333Z" fill="#DC0A2D"/>
</svg>
